<?xml version="1.0" encoding="UTF-8" standalone="no"?>
<!DOCTYPE svg PUBLIC "-//W3C//DTD SVG 1.1//EN" "http://www.w3.org/Graphics/SVG/1.1/DTD/svg11.dtd">
<svg width="100%" height="100%" viewBox="0 0 381 466" version="1.1" xmlns="http://www.w3.org/2000/svg" xmlns:xlink="http://www.w3.org/1999/xlink" xml:space="preserve" xmlns:serif="http://www.serif.com/" style="fill-rule:evenodd;clip-rule:evenodd;stroke-linejoin:round;stroke-miterlimit:2;">
    <g transform="matrix(1,0,0,1,-31.6735,-57.9578)">
        <g id="Initial" transform="matrix(0.7939,0,0,0.7939,47.8222,60.4343)">
            <path d="M189.802,277.147C189.838,276.903 87.182,331.927 59.37,364.218C34.848,392.689 27.504,415.728 22.93,470.893C20.475,500.505 49.645,546.659 101.28,553.64C144.247,559.449 174.049,537.097 177.224,494.142C185.107,387.519 190.039,296.766 189.802,277.147ZM292.446,179.644C285.965,189.147 298.27,221.277 328.515,202.108C357.908,183.48 373.41,148.835 367.398,145.091C361.387,141.346 298.926,170.141 292.446,179.644ZM411.35,120.971C388.198,132.828 391.252,161.458 392.974,173.13C394.619,184.28 406.83,204.673 421.681,190.999C436.926,176.963 442.316,159.091 442.182,140.157C441.969,110.261 441.614,105.471 411.35,120.971ZM112.549,-0.898C180.488,-5.915 236.667,-3.214 237.579,15.323C240.036,65.304 222.209,120.049 224.741,175.259C224.749,175.447 224.816,175.629 224.933,175.777C227.161,176.841 242.679,169.284 253.035,163.989C258.754,161.065 262.37,155.202 262.417,148.779C262.502,125.559 263.671,69.07 272.05,41.526C272.904,38.719 286.699,33.513 294.973,31.198C296.183,30.885 297.47,31.194 298.406,32.023C299.342,32.853 299.803,34.093 299.637,35.333C294.438,74.299 289.744,99.984 291.73,142.465C293.832,146.78 347.379,120.11 367.674,109.365C371.972,85.574 372.173,54.195 372.052,41.517C372.003,38.162 374.19,35.183 377.405,34.223C380.965,33.155 385.722,31.735 389.931,30.479C392.021,29.855 394.284,30.355 395.917,31.8C397.55,33.246 398.322,35.432 397.957,37.582C395.099,54.539 390.288,87.616 395.106,93.607C401.64,101.73 428.402,74.658 438.951,76.29C449.5,77.922 457.211,92.341 458.4,103.399C460.441,122.377 459.597,172.383 451.198,190.157C435.77,222.807 415.135,228.74 396.36,224.48C378.818,220.5 377.813,208.18 374.521,199.688C373.309,200.405 363.041,218.979 339.311,231.245C318.198,242.159 291.23,244.016 276.928,235.065C257.711,223.038 271.035,193.243 261.972,191.942C252.91,190.641 223.627,219.876 222.553,227.259C222.212,229.611 213.673,334.415 211.92,376.039C211.223,392.605 207.73,460.202 206.986,470.893C202.234,539.242 194.85,539.39 179.607,556.406C144.483,595.618 83.992,584.153 59.52,572.12C29.278,557.249 18.921,541.677 6.359,520.161C-4.343,501.83 -5.164,470.276 -1.094,445.649C3.535,417.64 13.448,378.227 34.132,352.105C55.274,325.403 98.949,307.121 125.76,285.44C150.096,265.76 175.331,259.075 194.996,222.019C196.151,219.842 99.227,275.786 9.142,303.371C-9.525,309.087 -21.458,286.214 -20.258,274.914C-19.058,263.614 -14.338,239.709 5.152,238.078C11.576,237.541 -13.357,281.957 16.672,272.758C82.579,252.57 194.034,191.975 194.28,188.36C195.504,170.415 206.142,36.923 206.142,36.923C206.142,36.923 102.756,27.527 77.142,45.581C69.729,50.806 68.437,128.45 68.217,159.18C68.202,161.698 66.778,163.996 64.529,165.129C62.28,166.261 59.586,166.038 57.554,164.551C48.453,157.825 37.001,147.342 38.387,137.926C42.175,112.206 45.594,67.666 44.489,30.315C44.348,25.537 56.786,3.22 112.549,-0.898Z"/>
        </g>
    </g>
</svg>
